<?xml version="1.0" standalone="no"?>
<!DOCTYPE svg PUBLIC "-//W3C//DTD SVG 20010904//EN"
 "http://www.w3.org/TR/2001/REC-SVG-20010904/DTD/svg10.dtd">
<svg version="1.0" xmlns="http://www.w3.org/2000/svg"
 width="512.000000pt" height="512.000000pt" viewBox="0 0 512.000000 512.000000"
 preserveAspectRatio="xMidYMid meet">

<g transform="translate(0.000000,512.000000) scale(0.100000,-0.100000)"
fill="#000000" stroke="none">
<path d="M2370 5114 c-244 -28 -364 -50 -532 -100 -416 -122 -768 -332 -1084
-648 -220 -221 -357 -412 -489 -681 -121 -247 -192 -469 -237 -745 -31 -195
-31 -565 0 -760 45 -276 116 -498 237 -745 132 -269 269 -460 489 -681 221
-220 412 -357 681 -489 246 -121 469 -192 745 -237 195 -31 565 -31 760 0 276
45 499 116 745 237 269 132 460 269 681 489 220 221 357 412 489 681 88 179
132 296 180 476 63 240 78 371 78 649 0 278 -15 409 -78 649 -48 180 -92 297
-180 476 -132 269 -269 460 -489 681 -400 400 -863 635 -1426 725 -119 19
-478 34 -570 23z m490 -350 c838 -108 1558 -713 1819 -1528 73 -228 103 -424
103 -676 0 -466 -137 -903 -403 -1278 -61 -85 -166 -215 -178 -219 -3 -2 -25
31 -49 73 -79 138 -164 248 -296 380 -158 158 -289 252 -484 350 l-142 71 55
43 c165 127 306 329 380 542 56 162 76 394 47 565 -69 417 -375 776 -777 911
-620 210 -1292 -131 -1489 -756 -71 -226 -68 -499 9 -720 74 -213 215 -415
380 -542 l55 -43 -142 -71 c-195 -98 -326 -192 -484 -350 -131 -132 -212 -235
-294 -378 -25 -43 -48 -77 -51 -75 -12 4 -117 134 -176 217 -207 293 -339 628
-389 985 -32 234 -17 560 36 791 223 957 1047 1659 2020 1723 141 10 298 4
450 -15z m-95 -1063 c564 -148 805 -791 480 -1281 -176 -265 -528 -409 -843
-344 -396 82 -672 414 -672 812 0 177 41 319 131 458 62 95 115 152 198 213
208 153 465 205 706 142z m-69 -1985 c164 -10 369 -68 535 -152 284 -142 530
-387 671 -668 l40 -79 -24 -19 c-228 -179 -583 -345 -871 -408 -317 -70 -657
-70 -977 0 -284 63 -641 230 -868 408 l-24 19 40 79 c106 210 299 433 487 560
167 114 368 200 560 239 81 17 266 33 320 28 17 -1 66 -4 111 -7z"/>
</g>
</svg>
